G04*
G04 #@! TF.GenerationSoftware,Altium Limited,Altium Designer,22.2.1 (43)*
G04*
G04 Layer_Color=65535*
%FSLAX25Y25*%
%MOIN*%
G70*
G04*
G04 #@! TF.SameCoordinates,84257AD4-3E44-4DFC-A38E-5C661E0BE4F9*
G04*
G04*
G04 #@! TF.FilePolarity,Positive*
G04*
G01*
G75*
%ADD10C,0.00984*%
%ADD11C,0.00787*%
%ADD12C,0.00600*%
D10*
X83256Y5504D02*
X82518Y5930D01*
Y5078D01*
X83256Y5504D01*
X40756D02*
X40018Y5930D01*
Y5078D01*
X40756Y5504D01*
X53728Y39496D02*
X52990Y39922D01*
Y39070D01*
X53728Y39496D01*
X11228D02*
X10490Y39922D01*
Y39070D01*
X11228Y39496D01*
D11*
X48642Y30034D02*
Y36924D01*
X55346Y30055D02*
Y36945D01*
X39642Y30034D02*
Y36924D01*
X46346Y30055D02*
Y36945D01*
X54358Y8576D02*
Y15466D01*
X47654Y8555D02*
Y15445D01*
X46358Y8576D02*
Y15466D01*
X39654Y8555D02*
Y15445D01*
X58157Y2157D02*
X77843D01*
X58157Y21843D02*
X77843D01*
Y21646D02*
Y21843D01*
X58157Y21646D02*
Y21843D01*
Y2157D02*
Y2354D01*
X77843Y2157D02*
Y2354D01*
Y8850D02*
Y15150D01*
X58157Y8850D02*
Y15150D01*
X15657Y2157D02*
X35343D01*
X15657Y21843D02*
X35343D01*
Y21646D02*
Y21843D01*
X15657Y21646D02*
Y21843D01*
Y2157D02*
Y2354D01*
X35343Y2157D02*
Y2354D01*
Y8850D02*
Y15150D01*
X15657Y8850D02*
Y15150D01*
X58157Y42843D02*
X77843D01*
X58157Y23157D02*
X77843D01*
X58157D02*
Y23354D01*
X77843Y23157D02*
Y23354D01*
Y42646D02*
Y42843D01*
X58157Y42646D02*
Y42843D01*
Y29850D02*
Y36150D01*
X77843Y29850D02*
Y36150D01*
X15657Y42843D02*
X35343D01*
X15657Y23157D02*
X35343D01*
X15657D02*
Y23354D01*
X35343Y23157D02*
Y23354D01*
Y42646D02*
Y42843D01*
X15657Y42646D02*
Y42843D01*
Y29850D02*
Y36150D01*
X35343Y29850D02*
Y36150D01*
D12*
X50500Y20500D02*
X50000Y21000D01*
X49001D01*
X48501Y20500D01*
Y18500D01*
X49001Y18000D01*
X50000D01*
X50500Y18500D01*
X52999Y18000D02*
Y21000D01*
X51500Y19500D01*
X53499D01*
X42500Y20500D02*
X42000Y21000D01*
X41001D01*
X40501Y20500D01*
Y18500D01*
X41001Y18000D01*
X42000D01*
X42500Y18500D01*
X43500Y20500D02*
X44000Y21000D01*
X44999D01*
X45499Y20500D01*
Y20000D01*
X44999Y19500D01*
X44499D01*
X44999D01*
X45499Y19000D01*
Y18500D01*
X44999Y18000D01*
X44000D01*
X43500Y18500D01*
X51500Y42000D02*
X51000Y42500D01*
X50001D01*
X49501Y42000D01*
Y40000D01*
X50001Y39500D01*
X51000D01*
X51500Y40000D01*
X54499Y39500D02*
X52500D01*
X54499Y41500D01*
Y42000D01*
X53999Y42500D01*
X53000D01*
X52500Y42000D01*
X43000Y41988D02*
X42500Y42488D01*
X41500D01*
X41001Y41988D01*
Y39988D01*
X41500Y39489D01*
X42500D01*
X43000Y39988D01*
X44000Y39489D02*
X44999D01*
X44499D01*
Y42488D01*
X44000Y41988D01*
M02*
