G04*
G04 #@! TF.GenerationSoftware,Altium Limited,Altium Designer,22.2.1 (43)*
G04*
G04 Layer_Physical_Order=1*
G04 Layer_Color=255*
%FSLAX25Y25*%
%MOIN*%
G70*
G04*
G04 #@! TF.SameCoordinates,84257AD4-3E44-4DFC-A38E-5C661E0BE4F9*
G04*
G04*
G04 #@! TF.FilePolarity,Positive*
G04*
G01*
G75*
%ADD13R,0.03543X0.02953*%
%ADD14R,0.05906X0.03543*%
%ADD16C,0.02000*%
%ADD17C,0.05000*%
D13*
X52000Y31138D02*
D03*
Y35862D02*
D03*
X43000Y31138D02*
D03*
Y35862D02*
D03*
X51000Y14362D02*
D03*
Y9638D02*
D03*
X43000Y14362D02*
D03*
Y9638D02*
D03*
D14*
X77646Y5504D02*
D03*
Y18496D02*
D03*
X58354D02*
D03*
Y5504D02*
D03*
X35146D02*
D03*
Y18496D02*
D03*
X15854D02*
D03*
Y5504D02*
D03*
X58354Y39496D02*
D03*
Y26504D02*
D03*
X77646D02*
D03*
Y39496D02*
D03*
X15854D02*
D03*
Y26504D02*
D03*
X35146D02*
D03*
Y39496D02*
D03*
D16*
X8002Y18498D02*
X15585D01*
X8000Y18500D02*
X8002Y18498D01*
X21616Y23076D02*
Y23116D01*
X25008Y26508D01*
X15587Y18500D02*
X17040D01*
X15585Y18498D02*
X15587Y18500D01*
X17040D02*
X21616Y23076D01*
X31097Y1500D02*
X31364Y1232D01*
X56083D01*
X60354Y5504D01*
X30364Y1500D02*
X31097D01*
X28193Y3672D02*
X30364Y1500D01*
X25008Y26508D02*
X38370D01*
X51000Y14362D02*
X52500D01*
X44000D02*
X51000D01*
X43772Y14839D02*
Y15134D01*
X43926Y15288D01*
Y18426D01*
X44500Y19000D01*
X43000Y14362D02*
X43295D01*
X43772Y14839D01*
X33574Y5776D02*
Y9926D01*
X34346Y5004D02*
X39366D01*
X33574Y5776D02*
X34346Y5004D01*
X33000Y10500D02*
X33574Y9926D01*
X28193Y3672D02*
Y13043D01*
X33146Y17996D01*
X72181Y31138D02*
X76319Y27000D01*
X69815Y18496D02*
X78319Y27000D01*
X70500D02*
X76319D01*
X77500D01*
X78319D01*
X66196Y39992D02*
X66354Y39834D01*
X68686D01*
X69260Y39260D01*
X43000Y35862D02*
X52000D01*
X42705D02*
X43000D01*
X72649Y14680D02*
X76464Y18496D01*
X72200Y14680D02*
X72649D01*
X76464Y18496D02*
X77646D01*
X75512Y9638D02*
X79646Y5504D01*
X52500Y9638D02*
X75512D01*
X56634Y18496D02*
X69815D01*
X41842Y35000D02*
X42705Y35862D01*
X21531Y35000D02*
X41842D01*
X76319Y39992D02*
X77500D01*
X17036Y39496D02*
X21531Y35000D01*
X12806Y44000D02*
X72311D01*
X10902Y42096D02*
X12806Y44000D01*
X72311D02*
X76319Y39992D01*
X15854Y39496D02*
X17036D01*
X27000Y39500D02*
X35142D01*
X35146Y39496D01*
X58209Y39992D02*
X66196D01*
X39366Y5004D02*
X44000Y9638D01*
X51000D01*
X43105Y27000D02*
X60209D01*
X52000Y31138D02*
X72181D01*
X10902Y36138D02*
Y42096D01*
Y36138D02*
X15764Y31276D01*
Y26595D02*
X15854Y26504D01*
X15764Y26595D02*
Y31276D01*
X15854Y5004D02*
Y10354D01*
Y5004D02*
X17036D01*
X17807Y5776D01*
X13854Y5004D02*
X15036D01*
X38841Y22736D02*
X43105Y27000D01*
X28236Y22736D02*
X38841D01*
X15854Y10354D02*
X28236Y22736D01*
X38370Y26508D02*
X43000Y31138D01*
X52500Y14362D02*
X56634Y18496D01*
X43000Y31138D02*
X52000D01*
Y35862D02*
X56130Y39992D01*
D17*
X8000Y18500D02*
D03*
X44500Y19000D02*
D03*
X33000Y10500D02*
D03*
X70500Y27000D02*
D03*
X69260Y39260D02*
D03*
X72200Y14680D02*
D03*
X27000Y39500D02*
D03*
M02*
