G04*
G04 #@! TF.GenerationSoftware,Altium Limited,Altium Designer,22.2.1 (43)*
G04*
G04 Layer_Color=32896*
%FSLAX25Y25*%
%MOIN*%
G70*
G04*
G04 #@! TF.SameCoordinates,84257AD4-3E44-4DFC-A38E-5C661E0BE4F9*
G04*
G04*
G04 #@! TF.FilePolarity,Positive*
G04*
G01*
G75*
%ADD20C,0.00500*%
D20*
X68000Y12999D02*
Y10000D01*
X66501D01*
X66001Y10500D01*
Y12499D01*
X66501Y12999D01*
X68000D01*
X64501Y10000D02*
X63501D01*
X63002Y10500D01*
Y11500D01*
X63501Y11999D01*
X64501D01*
X65001Y11500D01*
Y10500D01*
X64501Y10000D01*
X62002Y11999D02*
Y10500D01*
X61502Y10000D01*
X60003D01*
Y11999D01*
X58503Y12499D02*
Y11999D01*
X59003D01*
X58003D01*
X58503D01*
Y10500D01*
X58003Y10000D01*
X52001Y11999D02*
X52500Y12499D01*
X53500D01*
X54000Y11999D01*
Y10000D01*
X53500Y9500D01*
X52500D01*
X52001Y10000D01*
Y11000D01*
X53000D01*
X51001Y9500D02*
Y12499D01*
X49002Y9500D01*
Y12499D01*
X48002D02*
Y9500D01*
X46502D01*
X46003Y10000D01*
Y11999D01*
X46502Y12499D01*
X48002D01*
X37501D02*
X39500D01*
Y11000D01*
X38500Y11499D01*
X38001D01*
X37501Y11000D01*
Y10000D01*
X38001Y9500D01*
X39000D01*
X39500Y10000D01*
X36501Y11499D02*
X35501Y9500D01*
X34502Y11499D01*
X27000Y12499D02*
Y9500D01*
X25501D01*
X25001Y10000D01*
Y11999D01*
X25501Y12499D01*
X27000D01*
X24001Y9500D02*
X23001D01*
X23501D01*
Y11499D01*
X24001D01*
X21502Y9500D02*
Y11499D01*
X20002D01*
X19502Y11000D01*
Y9500D01*
M02*
