G04*
G04 #@! TF.GenerationSoftware,Altium Limited,Altium Designer,22.2.1 (43)*
G04*
G04 Layer_Physical_Order=2*
G04 Layer_Color=16711680*
%FSLAX25Y25*%
%MOIN*%
G70*
G04*
G04 #@! TF.SameCoordinates,84257AD4-3E44-4DFC-A38E-5C661E0BE4F9*
G04*
G04*
G04 #@! TF.FilePolarity,Positive*
G04*
G01*
G75*
%ADD16C,0.02000*%
%ADD17C,0.05000*%
G04:AMPARAMS|DCode=18|XSize=80mil|YSize=200mil|CornerRadius=20mil|HoleSize=0mil|Usage=FLASHONLY|Rotation=0.000|XOffset=0mil|YOffset=0mil|HoleType=Round|Shape=RoundedRectangle|*
%AMROUNDEDRECTD18*
21,1,0.08000,0.16000,0,0,0.0*
21,1,0.04000,0.20000,0,0,0.0*
1,1,0.04000,0.02000,-0.08000*
1,1,0.04000,-0.02000,-0.08000*
1,1,0.04000,-0.02000,0.08000*
1,1,0.04000,0.02000,0.08000*
%
%ADD18ROUNDEDRECTD18*%
D16*
X33000Y10500D02*
Y11312D01*
X34617Y12929D01*
Y22117D01*
X37000Y23500D01*
Y30500D01*
X69926Y27574D02*
X70500Y27000D01*
X69926Y27574D02*
Y32231D01*
X65657Y36500D02*
X69926Y32231D01*
X56000Y36500D02*
X65657D01*
X50000Y30500D02*
X56000Y36500D01*
X37000Y30500D02*
X46000Y39500D01*
X69021D01*
X69260Y39260D01*
X50000Y24500D02*
Y30500D01*
X27000Y34541D02*
Y39500D01*
X23500Y24500D02*
Y31041D01*
X27000Y34541D01*
X71626Y15254D02*
X72200Y14680D01*
X71388D02*
X72200D01*
X69000Y17068D02*
X71388Y14680D01*
X64924Y17068D02*
X69000D01*
X62000Y19992D02*
Y24500D01*
Y19992D02*
X64924Y17068D01*
X27000Y39500D02*
X27574Y38926D01*
D17*
X8000Y18500D02*
D03*
X44500Y19000D02*
D03*
X33000Y10500D02*
D03*
X70500Y27000D02*
D03*
X69260Y39260D02*
D03*
X72200Y14680D02*
D03*
X27000Y39500D02*
D03*
D18*
X25000Y23500D02*
D03*
X50000D02*
D03*
X62000D02*
D03*
X37000D02*
D03*
M02*
