G04*
G04 #@! TF.GenerationSoftware,Altium Limited,Altium Designer,22.2.1 (43)*
G04*
G04 Layer_Color=16711935*
%FSLAX25Y25*%
%MOIN*%
G70*
G04*
G04 #@! TF.SameCoordinates,84257AD4-3E44-4DFC-A38E-5C661E0BE4F9*
G04*
G04*
G04 #@! TF.FilePolarity,Positive*
G04*
G01*
G75*
%ADD11C,0.00787*%
G36*
X53358Y33498D02*
X53385D01*
X53420Y33495D01*
X53460Y33493D01*
X53505Y33487D01*
X53554Y33482D01*
X53605Y33473D01*
X53660Y33464D01*
X53718Y33451D01*
X53776Y33436D01*
X53834Y33420D01*
X53893Y33400D01*
X53949Y33376D01*
X54006Y33351D01*
X54009Y33349D01*
X54018Y33343D01*
X54033Y33334D01*
X54055Y33323D01*
X54078Y33307D01*
X54106Y33289D01*
X54138Y33265D01*
X54171Y33240D01*
X54206Y33213D01*
X54244Y33180D01*
X54280Y33145D01*
X54317Y33107D01*
X54353Y33065D01*
X54388Y33021D01*
X54421Y32974D01*
X54452Y32923D01*
X54453Y32919D01*
X54459Y32910D01*
X54466Y32896D01*
X54475Y32874D01*
X54488Y32849D01*
X54501Y32818D01*
X54513Y32781D01*
X54528Y32743D01*
X54542Y32699D01*
X54555Y32652D01*
X54570Y32601D01*
X54581Y32548D01*
X54590Y32492D01*
X54597Y32434D01*
X54602Y32373D01*
X54604Y32312D01*
Y32286D01*
X54602Y32275D01*
X54601Y32248D01*
X54599Y32215D01*
X54593Y32179D01*
X54588Y32137D01*
X54581Y32089D01*
X54570Y32040D01*
X54557Y31989D01*
X54542Y31937D01*
X54523Y31884D01*
X54501Y31831D01*
X54475Y31776D01*
X54446Y31725D01*
X54412Y31676D01*
X54410Y31673D01*
X54402Y31666D01*
X54391Y31651D01*
X54375Y31635D01*
X54357Y31613D01*
X54331Y31589D01*
X54304Y31563D01*
X54271Y31534D01*
X54235Y31505D01*
X54195Y31474D01*
X54149Y31445D01*
X54102Y31416D01*
X54049Y31387D01*
X53993Y31361D01*
X53933Y31336D01*
X53869Y31316D01*
X53793Y31644D01*
X53796Y31645D01*
X53805Y31647D01*
X53818Y31653D01*
X53838Y31660D01*
X53860Y31669D01*
X53886Y31680D01*
X53915Y31695D01*
X53945Y31709D01*
X53978Y31725D01*
X54011Y31745D01*
X54044Y31766D01*
X54078Y31789D01*
X54109Y31815D01*
X54140Y31840D01*
X54168Y31869D01*
X54193Y31900D01*
X54195Y31902D01*
X54198Y31907D01*
X54204Y31917D01*
X54213Y31929D01*
X54222Y31946D01*
X54233Y31966D01*
X54244Y31989D01*
X54257Y32015D01*
X54268Y32044D01*
X54279Y32075D01*
X54290Y32110D01*
X54299Y32146D01*
X54308Y32186D01*
X54313Y32228D01*
X54317Y32272D01*
X54319Y32319D01*
Y32346D01*
X54317Y32366D01*
X54315Y32392D01*
X54311Y32421D01*
X54308Y32454D01*
X54300Y32488D01*
X54293Y32526D01*
X54284Y32565D01*
X54273Y32605D01*
X54260Y32646D01*
X54244Y32686D01*
X54224Y32726D01*
X54204Y32767D01*
X54179Y32805D01*
X54177Y32807D01*
X54173Y32814D01*
X54164Y32823D01*
X54153Y32836D01*
X54138Y32852D01*
X54122Y32870D01*
X54102Y32890D01*
X54080Y32912D01*
X54055Y32934D01*
X54027Y32958D01*
X53996Y32980D01*
X53962Y33001D01*
X53927Y33023D01*
X53889Y33043D01*
X53849Y33061D01*
X53805Y33078D01*
X53804D01*
X53794Y33081D01*
X53782Y33085D01*
X53765Y33090D01*
X53743Y33096D01*
X53718Y33103D01*
X53689Y33109D01*
X53656Y33116D01*
X53622Y33123D01*
X53583Y33131D01*
X53543Y33138D01*
X53501Y33143D01*
X53414Y33152D01*
X53369Y33154D01*
X53321Y33156D01*
X53318D01*
X53307D01*
X53290D01*
X53267Y33154D01*
X53239Y33152D01*
X53207Y33151D01*
X53170Y33149D01*
X53132Y33145D01*
X53088Y33140D01*
X53043Y33134D01*
X52950Y33116D01*
X52901Y33107D01*
X52854Y33094D01*
X52806Y33080D01*
X52761Y33063D01*
X52759Y33061D01*
X52750Y33060D01*
X52739Y33054D01*
X52723Y33045D01*
X52702Y33036D01*
X52679Y33023D01*
X52653Y33009D01*
X52626Y32992D01*
X52599Y32972D01*
X52570Y32950D01*
X52539Y32927D01*
X52510Y32901D01*
X52480Y32872D01*
X52453Y32841D01*
X52428Y32808D01*
X52404Y32772D01*
X52402Y32770D01*
X52399Y32763D01*
X52393Y32752D01*
X52386Y32737D01*
X52377Y32719D01*
X52366Y32697D01*
X52357Y32672D01*
X52346Y32645D01*
X52333Y32614D01*
X52324Y32581D01*
X52313Y32544D01*
X52304Y32508D01*
X52297Y32468D01*
X52291Y32428D01*
X52288Y32386D01*
X52286Y32344D01*
Y32332D01*
X52288Y32317D01*
Y32297D01*
X52291Y32273D01*
X52295Y32246D01*
X52298Y32213D01*
X52306Y32181D01*
X52315Y32144D01*
X52326Y32106D01*
X52338Y32066D01*
X52353Y32026D01*
X52371Y31986D01*
X52393Y31946D01*
X52419Y31907D01*
X52446Y31869D01*
X52448Y31868D01*
X52453Y31860D01*
X52462Y31851D01*
X52477Y31838D01*
X52493Y31822D01*
X52513Y31804D01*
X52539Y31784D01*
X52566Y31764D01*
X52599Y31742D01*
X52633Y31720D01*
X52673Y31696D01*
X52717Y31676D01*
X52763Y31655D01*
X52814Y31636D01*
X52866Y31620D01*
X52925Y31605D01*
X52841Y31272D01*
X52839D01*
X52835Y31274D01*
X52830Y31276D01*
X52823Y31278D01*
X52814Y31280D01*
X52801Y31283D01*
X52773Y31292D01*
X52739Y31305D01*
X52701Y31320D01*
X52657Y31338D01*
X52610Y31360D01*
X52559Y31383D01*
X52508Y31411D01*
X52457Y31442D01*
X52404Y31476D01*
X52353Y31514D01*
X52304Y31556D01*
X52258Y31602D01*
X52215Y31651D01*
X52213Y31655D01*
X52206Y31664D01*
X52195Y31678D01*
X52182Y31700D01*
X52166Y31725D01*
X52147Y31758D01*
X52127Y31795D01*
X52107Y31837D01*
X52087Y31882D01*
X52067Y31933D01*
X52049Y31988D01*
X52033Y32046D01*
X52020Y32110D01*
X52009Y32175D01*
X52002Y32244D01*
X52000Y32317D01*
Y32344D01*
X52002Y32357D01*
Y32384D01*
X52005Y32419D01*
X52009Y32459D01*
X52014Y32504D01*
X52020Y32552D01*
X52029Y32605D01*
X52040Y32657D01*
X52055Y32714D01*
X52069Y32768D01*
X52089Y32823D01*
X52111Y32878D01*
X52136Y32930D01*
X52166Y32980D01*
X52167Y32983D01*
X52173Y32990D01*
X52184Y33003D01*
X52197Y33021D01*
X52213Y33043D01*
X52235Y33067D01*
X52258Y33094D01*
X52288Y33123D01*
X52320Y33154D01*
X52355Y33185D01*
X52395Y33218D01*
X52437Y33251D01*
X52484Y33282D01*
X52533Y33313D01*
X52588Y33342D01*
X52644Y33367D01*
X52646D01*
X52648Y33369D01*
X52659Y33373D01*
X52675Y33380D01*
X52699Y33387D01*
X52728Y33398D01*
X52763Y33409D01*
X52803Y33422D01*
X52846Y33433D01*
X52895Y33445D01*
X52948Y33458D01*
X53003Y33469D01*
X53063Y33480D01*
X53123Y33487D01*
X53187Y33495D01*
X53252Y33498D01*
X53319Y33500D01*
X53321D01*
X53325D01*
X53330D01*
X53338D01*
X53347D01*
X53358Y33498D01*
D02*
G37*
G36*
X52082Y31025D02*
X52111Y31023D01*
X52142Y31019D01*
X52178Y31014D01*
X52217Y31005D01*
X52255Y30992D01*
X52257D01*
X52262Y30988D01*
X52271Y30985D01*
X52284Y30979D01*
X52300Y30974D01*
X52318Y30965D01*
X52338Y30954D01*
X52360Y30943D01*
X52386Y30930D01*
X52411Y30914D01*
X52468Y30879D01*
X52528Y30837D01*
X52590Y30788D01*
X52591Y30786D01*
X52597Y30781D01*
X52606Y30774D01*
X52619Y30763D01*
X52635Y30748D01*
X52653Y30730D01*
X52675Y30710D01*
X52699Y30685D01*
X52726Y30657D01*
X52755Y30628D01*
X52786Y30595D01*
X52821Y30559D01*
X52855Y30519D01*
X52892Y30477D01*
X52930Y30432D01*
X52970Y30384D01*
X52972Y30382D01*
X52974Y30379D01*
X52979Y30373D01*
X52985Y30366D01*
X52994Y30357D01*
X53003Y30346D01*
X53026Y30319D01*
X53054Y30284D01*
X53088Y30248D01*
X53125Y30206D01*
X53165Y30162D01*
X53207Y30115D01*
X53250Y30069D01*
X53294Y30022D01*
X53339Y29978D01*
X53383Y29935D01*
X53425Y29896D01*
X53467Y29860D01*
X53505Y29831D01*
X53507Y29829D01*
X53514Y29825D01*
X53525Y29818D01*
X53538Y29807D01*
X53556Y29796D01*
X53576Y29785D01*
X53600Y29771D01*
X53625Y29758D01*
X53653Y29745D01*
X53682Y29731D01*
X53745Y29707D01*
X53778Y29698D01*
X53811Y29691D01*
X53844Y29687D01*
X53876Y29685D01*
X53878D01*
X53886D01*
X53895D01*
X53907Y29687D01*
X53924Y29689D01*
X53942Y29693D01*
X53962Y29696D01*
X53984Y29702D01*
X54007Y29709D01*
X54033Y29718D01*
X54058Y29729D01*
X54084Y29742D01*
X54111Y29756D01*
X54137Y29774D01*
X54162Y29794D01*
X54186Y29818D01*
X54188Y29820D01*
X54191Y29824D01*
X54197Y29831D01*
X54206Y29842D01*
X54215Y29855D01*
X54226Y29871D01*
X54238Y29889D01*
X54250Y29909D01*
X54262Y29933D01*
X54273Y29958D01*
X54284Y29987D01*
X54293Y30017D01*
X54302Y30049D01*
X54308Y30084D01*
X54311Y30120D01*
X54313Y30158D01*
Y30180D01*
X54311Y30195D01*
X54309Y30215D01*
X54306Y30237D01*
X54302Y30260D01*
X54297Y30288D01*
X54290Y30315D01*
X54280Y30344D01*
X54269Y30373D01*
X54257Y30404D01*
X54240Y30433D01*
X54222Y30463D01*
X54202Y30492D01*
X54179Y30517D01*
X54177Y30519D01*
X54173Y30523D01*
X54164Y30530D01*
X54155Y30537D01*
X54140Y30548D01*
X54124Y30559D01*
X54104Y30572D01*
X54082Y30583D01*
X54058Y30595D01*
X54029Y30608D01*
X54000Y30619D01*
X53967Y30630D01*
X53931Y30637D01*
X53893Y30645D01*
X53853Y30648D01*
X53809Y30650D01*
X53842Y30968D01*
X53844D01*
X53845D01*
X53851Y30967D01*
X53858D01*
X53876Y30965D01*
X53900Y30959D01*
X53929Y30954D01*
X53964Y30947D01*
X54002Y30937D01*
X54042Y30926D01*
X54086Y30912D01*
X54129Y30896D01*
X54175Y30876D01*
X54220Y30852D01*
X54264Y30826D01*
X54306Y30795D01*
X54346Y30763D01*
X54382Y30724D01*
X54384Y30723D01*
X54390Y30715D01*
X54400Y30703D01*
X54412Y30686D01*
X54426Y30665D01*
X54442Y30639D01*
X54459Y30608D01*
X54477Y30573D01*
X54493Y30533D01*
X54510Y30492D01*
X54526Y30444D01*
X54541Y30393D01*
X54553Y30339D01*
X54562Y30281D01*
X54568Y30219D01*
X54570Y30153D01*
Y30137D01*
X54568Y30119D01*
X54566Y30093D01*
X54564Y30062D01*
X54559Y30027D01*
X54553Y29987D01*
X54544Y29946D01*
X54533Y29900D01*
X54521Y29855D01*
X54504Y29805D01*
X54484Y29758D01*
X54461Y29711D01*
X54435Y29665D01*
X54404Y29622D01*
X54368Y29580D01*
X54366Y29578D01*
X54359Y29571D01*
X54348Y29560D01*
X54331Y29547D01*
X54313Y29531D01*
X54290Y29512D01*
X54262Y29492D01*
X54231Y29472D01*
X54197Y29454D01*
X54159Y29434D01*
X54117Y29416D01*
X54073Y29400D01*
X54026Y29387D01*
X53977Y29376D01*
X53924Y29369D01*
X53869Y29367D01*
X53867D01*
X53862D01*
X53855D01*
X53844D01*
X53829Y29369D01*
X53815Y29370D01*
X53796Y29372D01*
X53776Y29374D01*
X53731Y29381D01*
X53680Y29392D01*
X53627Y29409D01*
X53572Y29429D01*
X53571D01*
X53565Y29432D01*
X53558Y29436D01*
X53547Y29441D01*
X53534Y29447D01*
X53518Y29456D01*
X53500Y29465D01*
X53480Y29478D01*
X53458Y29491D01*
X53434Y29505D01*
X53381Y29542D01*
X53354Y29561D01*
X53325Y29583D01*
X53296Y29609D01*
X53265Y29634D01*
X53263Y29636D01*
X53258Y29642D01*
X53249Y29649D01*
X53236Y29662D01*
X53219Y29678D01*
X53199Y29698D01*
X53176Y29720D01*
X53148Y29747D01*
X53119Y29778D01*
X53087Y29814D01*
X53050Y29853D01*
X53010Y29896D01*
X52968Y29944D01*
X52923Y29995D01*
X52874Y30051D01*
X52823Y30111D01*
X52821Y30115D01*
X52812Y30124D01*
X52801Y30137D01*
X52784Y30155D01*
X52766Y30178D01*
X52744Y30202D01*
X52721Y30229D01*
X52695Y30259D01*
X52642Y30321D01*
X52615Y30350D01*
X52590Y30379D01*
X52564Y30406D01*
X52542Y30430D01*
X52522Y30452D01*
X52504Y30468D01*
X52500Y30472D01*
X52490Y30481D01*
X52473Y30495D01*
X52453Y30513D01*
X52428Y30533D01*
X52400Y30555D01*
X52369Y30577D01*
X52338Y30597D01*
Y29363D01*
X52042D01*
Y31027D01*
X52044D01*
X52047D01*
X52053D01*
X52060D01*
X52071D01*
X52082Y31025D01*
D02*
G37*
G36*
X44358Y33498D02*
X44385D01*
X44420Y33495D01*
X44460Y33493D01*
X44505Y33487D01*
X44554Y33482D01*
X44605Y33473D01*
X44660Y33464D01*
X44718Y33451D01*
X44776Y33436D01*
X44835Y33420D01*
X44893Y33400D01*
X44949Y33376D01*
X45006Y33351D01*
X45009Y33349D01*
X45018Y33343D01*
X45033Y33334D01*
X45055Y33323D01*
X45078Y33307D01*
X45106Y33289D01*
X45138Y33265D01*
X45171Y33240D01*
X45206Y33213D01*
X45244Y33180D01*
X45280Y33145D01*
X45317Y33107D01*
X45353Y33065D01*
X45388Y33021D01*
X45421Y32974D01*
X45452Y32923D01*
X45453Y32919D01*
X45459Y32910D01*
X45466Y32896D01*
X45475Y32874D01*
X45488Y32849D01*
X45501Y32818D01*
X45513Y32781D01*
X45528Y32743D01*
X45542Y32699D01*
X45555Y32652D01*
X45570Y32601D01*
X45581Y32548D01*
X45590Y32492D01*
X45597Y32434D01*
X45603Y32373D01*
X45604Y32312D01*
Y32286D01*
X45603Y32275D01*
X45601Y32248D01*
X45599Y32215D01*
X45594Y32179D01*
X45588Y32137D01*
X45581Y32089D01*
X45570Y32040D01*
X45557Y31989D01*
X45542Y31937D01*
X45522Y31884D01*
X45501Y31831D01*
X45475Y31776D01*
X45446Y31725D01*
X45412Y31676D01*
X45410Y31673D01*
X45402Y31666D01*
X45391Y31651D01*
X45375Y31635D01*
X45357Y31613D01*
X45331Y31589D01*
X45304Y31563D01*
X45271Y31534D01*
X45235Y31505D01*
X45195Y31474D01*
X45149Y31445D01*
X45102Y31416D01*
X45049Y31387D01*
X44993Y31361D01*
X44933Y31336D01*
X44869Y31316D01*
X44793Y31644D01*
X44796Y31645D01*
X44805Y31647D01*
X44818Y31653D01*
X44838Y31660D01*
X44860Y31669D01*
X44886Y31680D01*
X44915Y31695D01*
X44945Y31709D01*
X44978Y31725D01*
X45011Y31745D01*
X45044Y31766D01*
X45078Y31789D01*
X45109Y31815D01*
X45140Y31840D01*
X45168Y31869D01*
X45193Y31900D01*
X45195Y31902D01*
X45199Y31907D01*
X45204Y31917D01*
X45213Y31929D01*
X45222Y31946D01*
X45233Y31966D01*
X45244Y31989D01*
X45257Y32015D01*
X45268Y32044D01*
X45279Y32075D01*
X45289Y32110D01*
X45299Y32146D01*
X45308Y32186D01*
X45313Y32228D01*
X45317Y32272D01*
X45319Y32319D01*
Y32346D01*
X45317Y32366D01*
X45315Y32392D01*
X45311Y32421D01*
X45308Y32454D01*
X45300Y32488D01*
X45293Y32526D01*
X45284Y32565D01*
X45273Y32605D01*
X45260Y32646D01*
X45244Y32686D01*
X45224Y32726D01*
X45204Y32767D01*
X45178Y32805D01*
X45177Y32807D01*
X45173Y32814D01*
X45164Y32823D01*
X45153Y32836D01*
X45138Y32852D01*
X45122Y32870D01*
X45102Y32890D01*
X45080Y32912D01*
X45055Y32934D01*
X45027Y32958D01*
X44997Y32980D01*
X44962Y33001D01*
X44927Y33023D01*
X44889Y33043D01*
X44849Y33061D01*
X44805Y33078D01*
X44804D01*
X44794Y33081D01*
X44782Y33085D01*
X44765Y33090D01*
X44743Y33096D01*
X44718Y33103D01*
X44689Y33109D01*
X44656Y33116D01*
X44622Y33123D01*
X44583Y33131D01*
X44543Y33138D01*
X44501Y33143D01*
X44414Y33152D01*
X44369Y33154D01*
X44321Y33156D01*
X44318D01*
X44307D01*
X44290D01*
X44267Y33154D01*
X44239Y33152D01*
X44207Y33151D01*
X44170Y33149D01*
X44132Y33145D01*
X44088Y33140D01*
X44043Y33134D01*
X43950Y33116D01*
X43901Y33107D01*
X43854Y33094D01*
X43806Y33080D01*
X43761Y33063D01*
X43759Y33061D01*
X43750Y33060D01*
X43739Y33054D01*
X43723Y33045D01*
X43703Y33036D01*
X43679Y33023D01*
X43653Y33009D01*
X43626Y32992D01*
X43599Y32972D01*
X43570Y32950D01*
X43539Y32927D01*
X43510Y32901D01*
X43480Y32872D01*
X43453Y32841D01*
X43428Y32808D01*
X43404Y32772D01*
X43402Y32770D01*
X43398Y32763D01*
X43393Y32752D01*
X43386Y32737D01*
X43377Y32719D01*
X43366Y32697D01*
X43357Y32672D01*
X43346Y32645D01*
X43333Y32614D01*
X43324Y32581D01*
X43313Y32544D01*
X43304Y32508D01*
X43297Y32468D01*
X43291Y32428D01*
X43288Y32386D01*
X43286Y32344D01*
Y32332D01*
X43288Y32317D01*
Y32297D01*
X43291Y32273D01*
X43295Y32246D01*
X43298Y32213D01*
X43306Y32181D01*
X43315Y32144D01*
X43326Y32106D01*
X43339Y32066D01*
X43353Y32026D01*
X43371Y31986D01*
X43393Y31946D01*
X43418Y31907D01*
X43446Y31869D01*
X43448Y31868D01*
X43453Y31860D01*
X43462Y31851D01*
X43477Y31838D01*
X43493Y31822D01*
X43513Y31804D01*
X43539Y31784D01*
X43566Y31764D01*
X43599Y31742D01*
X43633Y31720D01*
X43673Y31696D01*
X43717Y31676D01*
X43762Y31655D01*
X43813Y31636D01*
X43866Y31620D01*
X43924Y31605D01*
X43841Y31272D01*
X43839D01*
X43835Y31274D01*
X43830Y31276D01*
X43823Y31278D01*
X43813Y31280D01*
X43801Y31283D01*
X43773Y31292D01*
X43739Y31305D01*
X43701Y31320D01*
X43657Y31338D01*
X43610Y31360D01*
X43559Y31383D01*
X43508Y31411D01*
X43457Y31442D01*
X43404Y31476D01*
X43353Y31514D01*
X43304Y31556D01*
X43258Y31602D01*
X43215Y31651D01*
X43213Y31655D01*
X43206Y31664D01*
X43195Y31678D01*
X43182Y31700D01*
X43166Y31725D01*
X43147Y31758D01*
X43127Y31795D01*
X43107Y31837D01*
X43087Y31882D01*
X43067Y31933D01*
X43049Y31988D01*
X43033Y32046D01*
X43020Y32110D01*
X43009Y32175D01*
X43002Y32244D01*
X43000Y32317D01*
Y32344D01*
X43002Y32357D01*
Y32384D01*
X43005Y32419D01*
X43009Y32459D01*
X43014Y32504D01*
X43020Y32552D01*
X43029Y32605D01*
X43040Y32657D01*
X43055Y32714D01*
X43069Y32768D01*
X43089Y32823D01*
X43111Y32878D01*
X43137Y32930D01*
X43166Y32980D01*
X43167Y32983D01*
X43173Y32990D01*
X43184Y33003D01*
X43196Y33021D01*
X43213Y33043D01*
X43235Y33067D01*
X43258Y33094D01*
X43288Y33123D01*
X43320Y33154D01*
X43355Y33185D01*
X43395Y33218D01*
X43437Y33251D01*
X43484Y33282D01*
X43533Y33313D01*
X43588Y33342D01*
X43644Y33367D01*
X43646D01*
X43648Y33369D01*
X43659Y33373D01*
X43675Y33380D01*
X43699Y33387D01*
X43728Y33398D01*
X43762Y33409D01*
X43803Y33422D01*
X43846Y33433D01*
X43895Y33445D01*
X43948Y33458D01*
X44003Y33469D01*
X44063Y33480D01*
X44123Y33487D01*
X44187Y33495D01*
X44252Y33498D01*
X44319Y33500D01*
X44321D01*
X44325D01*
X44330D01*
X44338D01*
X44347D01*
X44358Y33498D01*
D02*
G37*
G36*
X44938Y30748D02*
X44942Y30741D01*
X44949Y30726D01*
X44958Y30708D01*
X44969Y30686D01*
X44984Y30659D01*
X45000Y30630D01*
X45018Y30599D01*
X45040Y30564D01*
X45062Y30528D01*
X45113Y30452D01*
X45169Y30373D01*
X45231Y30299D01*
X45233Y30297D01*
X45239Y30290D01*
X45248Y30281D01*
X45260Y30268D01*
X45277Y30251D01*
X45295Y30233D01*
X45317Y30213D01*
X45339Y30191D01*
X45364Y30169D01*
X45391Y30146D01*
X45448Y30100D01*
X45508Y30058D01*
X45539Y30040D01*
X45570Y30024D01*
Y29824D01*
X43042D01*
Y30133D01*
X45011D01*
X45009Y30135D01*
X45006Y30138D01*
X45000Y30144D01*
X44993Y30153D01*
X44984Y30164D01*
X44971Y30178D01*
X44958Y30195D01*
X44944Y30211D01*
X44929Y30233D01*
X44911Y30255D01*
X44895Y30279D01*
X44875Y30304D01*
X44856Y30333D01*
X44836Y30362D01*
X44796Y30428D01*
X44794Y30430D01*
X44791Y30435D01*
X44785Y30446D01*
X44780Y30459D01*
X44771Y30473D01*
X44760Y30492D01*
X44749Y30513D01*
X44736Y30535D01*
X44711Y30586D01*
X44685Y30641D01*
X44660Y30697D01*
X44638Y30752D01*
X44936D01*
X44938Y30748D01*
D02*
G37*
G36*
X50356Y15813D02*
X50958D01*
Y15504D01*
X50356D01*
Y14411D01*
X50072D01*
X48439Y15560D01*
Y15813D01*
X50072D01*
Y16153D01*
X50356D01*
Y15813D01*
D02*
G37*
G36*
X50165Y14226D02*
X50170Y14224D01*
X50177Y14222D01*
X50187Y14220D01*
X50199Y14217D01*
X50226Y14208D01*
X50261Y14195D01*
X50299Y14180D01*
X50343Y14162D01*
X50390Y14140D01*
X50441Y14117D01*
X50492Y14089D01*
X50543Y14058D01*
X50596Y14024D01*
X50647Y13986D01*
X50696Y13944D01*
X50742Y13898D01*
X50785Y13849D01*
X50787Y13845D01*
X50794Y13836D01*
X50805Y13822D01*
X50818Y13800D01*
X50834Y13774D01*
X50853Y13742D01*
X50873Y13705D01*
X50893Y13663D01*
X50913Y13618D01*
X50933Y13567D01*
X50951Y13512D01*
X50967Y13454D01*
X50980Y13390D01*
X50991Y13325D01*
X50998Y13256D01*
X51000Y13183D01*
Y13156D01*
X50998Y13143D01*
Y13116D01*
X50995Y13081D01*
X50991Y13041D01*
X50985Y12995D01*
X50980Y12948D01*
X50971Y12895D01*
X50960Y12843D01*
X50945Y12786D01*
X50931Y12732D01*
X50911Y12677D01*
X50889Y12622D01*
X50863Y12570D01*
X50834Y12520D01*
X50833Y12517D01*
X50827Y12510D01*
X50816Y12497D01*
X50804Y12479D01*
X50787Y12457D01*
X50765Y12433D01*
X50742Y12406D01*
X50713Y12377D01*
X50680Y12346D01*
X50645Y12315D01*
X50605Y12282D01*
X50563Y12249D01*
X50516Y12218D01*
X50467Y12187D01*
X50412Y12158D01*
X50356Y12133D01*
X50354D01*
X50352Y12131D01*
X50341Y12127D01*
X50325Y12120D01*
X50301Y12113D01*
X50272Y12102D01*
X50238Y12091D01*
X50197Y12078D01*
X50154Y12067D01*
X50105Y12055D01*
X50052Y12042D01*
X49997Y12031D01*
X49937Y12020D01*
X49877Y12013D01*
X49813Y12005D01*
X49748Y12002D01*
X49681Y12000D01*
X49679D01*
X49675D01*
X49670D01*
X49662D01*
X49653D01*
X49642Y12002D01*
X49615D01*
X49580Y12005D01*
X49540Y12007D01*
X49495Y12013D01*
X49446Y12018D01*
X49395Y12027D01*
X49340Y12036D01*
X49282Y12049D01*
X49224Y12064D01*
X49165Y12080D01*
X49107Y12100D01*
X49051Y12124D01*
X48994Y12149D01*
X48991Y12151D01*
X48982Y12156D01*
X48967Y12166D01*
X48945Y12177D01*
X48922Y12193D01*
X48894Y12211D01*
X48862Y12235D01*
X48829Y12260D01*
X48794Y12287D01*
X48756Y12320D01*
X48720Y12355D01*
X48683Y12393D01*
X48647Y12435D01*
X48612Y12479D01*
X48579Y12526D01*
X48548Y12577D01*
X48547Y12581D01*
X48541Y12590D01*
X48534Y12604D01*
X48525Y12626D01*
X48512Y12652D01*
X48499Y12683D01*
X48487Y12719D01*
X48472Y12757D01*
X48458Y12801D01*
X48445Y12848D01*
X48430Y12899D01*
X48419Y12952D01*
X48410Y13008D01*
X48403Y13067D01*
X48397Y13126D01*
X48396Y13188D01*
Y13214D01*
X48397Y13225D01*
X48399Y13252D01*
X48401Y13285D01*
X48406Y13321D01*
X48412Y13363D01*
X48419Y13410D01*
X48430Y13460D01*
X48443Y13511D01*
X48458Y13563D01*
X48478Y13616D01*
X48499Y13669D01*
X48525Y13724D01*
X48554Y13774D01*
X48588Y13824D01*
X48590Y13827D01*
X48598Y13835D01*
X48609Y13849D01*
X48625Y13866D01*
X48643Y13887D01*
X48669Y13911D01*
X48696Y13936D01*
X48729Y13965D01*
X48765Y13995D01*
X48805Y14026D01*
X48851Y14055D01*
X48898Y14084D01*
X48951Y14113D01*
X49007Y14139D01*
X49067Y14164D01*
X49131Y14184D01*
X49207Y13856D01*
X49204Y13855D01*
X49195Y13853D01*
X49182Y13847D01*
X49162Y13840D01*
X49140Y13831D01*
X49115Y13820D01*
X49085Y13805D01*
X49055Y13791D01*
X49022Y13774D01*
X48989Y13754D01*
X48956Y13734D01*
X48922Y13711D01*
X48891Y13685D01*
X48860Y13660D01*
X48832Y13631D01*
X48807Y13600D01*
X48805Y13598D01*
X48801Y13592D01*
X48796Y13583D01*
X48787Y13571D01*
X48778Y13554D01*
X48767Y13534D01*
X48756Y13511D01*
X48743Y13485D01*
X48732Y13456D01*
X48721Y13425D01*
X48711Y13390D01*
X48701Y13354D01*
X48692Y13314D01*
X48687Y13272D01*
X48683Y13228D01*
X48681Y13181D01*
Y13154D01*
X48683Y13134D01*
X48685Y13108D01*
X48689Y13079D01*
X48692Y13046D01*
X48700Y13012D01*
X48707Y12974D01*
X48716Y12935D01*
X48727Y12895D01*
X48740Y12854D01*
X48756Y12813D01*
X48776Y12773D01*
X48796Y12733D01*
X48821Y12695D01*
X48823Y12693D01*
X48827Y12686D01*
X48836Y12677D01*
X48847Y12664D01*
X48862Y12648D01*
X48878Y12630D01*
X48898Y12610D01*
X48920Y12588D01*
X48945Y12566D01*
X48973Y12542D01*
X49003Y12520D01*
X49038Y12499D01*
X49073Y12477D01*
X49111Y12457D01*
X49151Y12439D01*
X49195Y12422D01*
X49196D01*
X49205Y12419D01*
X49218Y12415D01*
X49235Y12409D01*
X49257Y12404D01*
X49282Y12397D01*
X49311Y12391D01*
X49344Y12384D01*
X49378Y12377D01*
X49417Y12369D01*
X49457Y12362D01*
X49499Y12357D01*
X49586Y12348D01*
X49631Y12346D01*
X49679Y12344D01*
X49682D01*
X49693D01*
X49710D01*
X49733Y12346D01*
X49761Y12348D01*
X49793Y12349D01*
X49830Y12351D01*
X49868Y12355D01*
X49912Y12360D01*
X49957Y12366D01*
X50050Y12384D01*
X50099Y12393D01*
X50146Y12406D01*
X50194Y12420D01*
X50239Y12437D01*
X50241Y12439D01*
X50250Y12440D01*
X50261Y12446D01*
X50278Y12455D01*
X50297Y12464D01*
X50321Y12477D01*
X50347Y12491D01*
X50374Y12508D01*
X50401Y12528D01*
X50430Y12550D01*
X50461Y12573D01*
X50490Y12599D01*
X50520Y12628D01*
X50547Y12659D01*
X50572Y12691D01*
X50596Y12728D01*
X50598Y12730D01*
X50601Y12737D01*
X50607Y12748D01*
X50614Y12763D01*
X50623Y12781D01*
X50634Y12803D01*
X50643Y12828D01*
X50654Y12855D01*
X50667Y12886D01*
X50676Y12919D01*
X50687Y12955D01*
X50696Y12992D01*
X50703Y13032D01*
X50709Y13072D01*
X50713Y13114D01*
X50714Y13156D01*
Y13168D01*
X50713Y13183D01*
Y13203D01*
X50709Y13227D01*
X50705Y13254D01*
X50701Y13287D01*
X50694Y13319D01*
X50685Y13356D01*
X50674Y13394D01*
X50661Y13434D01*
X50647Y13474D01*
X50629Y13514D01*
X50607Y13554D01*
X50581Y13592D01*
X50554Y13631D01*
X50552Y13633D01*
X50547Y13640D01*
X50538Y13649D01*
X50523Y13662D01*
X50507Y13678D01*
X50487Y13696D01*
X50461Y13716D01*
X50434Y13736D01*
X50401Y13758D01*
X50367Y13780D01*
X50327Y13804D01*
X50283Y13824D01*
X50238Y13845D01*
X50187Y13864D01*
X50134Y13880D01*
X50076Y13895D01*
X50159Y14228D01*
X50161D01*
X50165Y14226D01*
D02*
G37*
G36*
X42245Y16161D02*
X42267Y16159D01*
X42296Y16155D01*
X42328Y16150D01*
X42365Y16142D01*
X42405Y16131D01*
X42449Y16119D01*
X42492Y16104D01*
X42540Y16084D01*
X42587Y16060D01*
X42634Y16033D01*
X42682Y16000D01*
X42727Y15962D01*
X42771Y15920D01*
X42772Y15917D01*
X42780Y15909D01*
X42792Y15897D01*
X42807Y15877D01*
X42823Y15853D01*
X42843Y15826D01*
X42864Y15791D01*
X42885Y15755D01*
X42907Y15713D01*
X42927Y15665D01*
X42947Y15616D01*
X42964Y15562D01*
X42978Y15505D01*
X42991Y15443D01*
X42998Y15380D01*
X43000Y15312D01*
Y15298D01*
X42998Y15280D01*
X42996Y15258D01*
X42995Y15229D01*
X42989Y15196D01*
X42984Y15159D01*
X42974Y15119D01*
X42965Y15078D01*
X42953Y15032D01*
X42936Y14987D01*
X42916Y14939D01*
X42895Y14894D01*
X42869Y14848D01*
X42838Y14803D01*
X42803Y14761D01*
X42802Y14759D01*
X42794Y14752D01*
X42783Y14741D01*
X42767Y14726D01*
X42747Y14710D01*
X42723Y14690D01*
X42696Y14670D01*
X42665Y14648D01*
X42631Y14626D01*
X42590Y14604D01*
X42549Y14584D01*
X42503Y14564D01*
X42454Y14548D01*
X42403Y14532D01*
X42349Y14521D01*
X42290Y14513D01*
X42248Y14823D01*
X42252D01*
X42259Y14825D01*
X42274Y14828D01*
X42292Y14834D01*
X42314Y14839D01*
X42338Y14846D01*
X42365Y14855D01*
X42394Y14865D01*
X42458Y14890D01*
X42520Y14921D01*
X42551Y14939D01*
X42580Y14959D01*
X42605Y14979D01*
X42629Y15003D01*
X42631Y15005D01*
X42634Y15008D01*
X42640Y15016D01*
X42647Y15027D01*
X42656Y15037D01*
X42665Y15054D01*
X42676Y15070D01*
X42685Y15090D01*
X42696Y15112D01*
X42707Y15136D01*
X42716Y15161D01*
X42725Y15189D01*
X42733Y15218D01*
X42738Y15249D01*
X42742Y15280D01*
X42743Y15314D01*
Y15323D01*
X42742Y15336D01*
Y15351D01*
X42738Y15371D01*
X42736Y15392D01*
X42731Y15416D01*
X42725Y15443D01*
X42716Y15471D01*
X42707Y15502D01*
X42694Y15533D01*
X42680Y15563D01*
X42661Y15595D01*
X42641Y15625D01*
X42620Y15654D01*
X42592Y15684D01*
X42590Y15686D01*
X42585Y15691D01*
X42578Y15698D01*
X42565Y15707D01*
X42551Y15718D01*
X42532Y15731D01*
X42512Y15745D01*
X42489Y15760D01*
X42463Y15773D01*
X42434Y15787D01*
X42405Y15800D01*
X42370Y15811D01*
X42336Y15820D01*
X42299Y15827D01*
X42259Y15833D01*
X42219Y15835D01*
X42217D01*
X42210D01*
X42199D01*
X42183Y15833D01*
X42167Y15831D01*
X42145Y15827D01*
X42121Y15824D01*
X42096Y15816D01*
X42068Y15809D01*
X42039Y15800D01*
X42010Y15789D01*
X41981Y15776D01*
X41952Y15760D01*
X41923Y15740D01*
X41895Y15720D01*
X41868Y15695D01*
X41866Y15693D01*
X41862Y15689D01*
X41855Y15680D01*
X41846Y15669D01*
X41835Y15656D01*
X41824Y15640D01*
X41812Y15620D01*
X41799Y15598D01*
X41786Y15574D01*
X41773Y15547D01*
X41762Y15518D01*
X41752Y15487D01*
X41742Y15454D01*
X41735Y15418D01*
X41732Y15382D01*
X41730Y15341D01*
Y15325D01*
X41732Y15307D01*
X41733Y15281D01*
X41737Y15249D01*
X41744Y15212D01*
X41752Y15170D01*
X41762Y15123D01*
X41491Y15158D01*
Y15163D01*
X41493Y15169D01*
Y15176D01*
X41495Y15192D01*
Y15227D01*
X41493Y15239D01*
X41491Y15258D01*
X41489Y15278D01*
X41486Y15300D01*
X41482Y15325D01*
X41477Y15352D01*
X41469Y15380D01*
X41451Y15440D01*
X41440Y15471D01*
X41426Y15502D01*
X41411Y15533D01*
X41393Y15562D01*
X41391Y15563D01*
X41388Y15569D01*
X41382Y15576D01*
X41373Y15587D01*
X41362Y15598D01*
X41349Y15613D01*
X41333Y15625D01*
X41315Y15642D01*
X41293Y15656D01*
X41269Y15671D01*
X41244Y15684D01*
X41215Y15695D01*
X41184Y15706D01*
X41149Y15713D01*
X41113Y15718D01*
X41074Y15720D01*
X41073D01*
X41067D01*
X41058D01*
X41045Y15718D01*
X41033Y15716D01*
X41014Y15715D01*
X40996Y15711D01*
X40976Y15706D01*
X40933Y15691D01*
X40909Y15682D01*
X40885Y15671D01*
X40861Y15658D01*
X40838Y15642D01*
X40816Y15624D01*
X40794Y15604D01*
X40792Y15602D01*
X40789Y15598D01*
X40783Y15593D01*
X40776Y15584D01*
X40769Y15571D01*
X40758Y15558D01*
X40749Y15542D01*
X40738Y15524D01*
X40727Y15504D01*
X40718Y15482D01*
X40707Y15456D01*
X40699Y15431D01*
X40692Y15402D01*
X40687Y15372D01*
X40683Y15340D01*
X40681Y15307D01*
Y15289D01*
X40683Y15278D01*
X40685Y15261D01*
X40687Y15243D01*
X40690Y15223D01*
X40696Y15201D01*
X40709Y15154D01*
X40718Y15130D01*
X40731Y15105D01*
X40743Y15079D01*
X40758Y15054D01*
X40776Y15030D01*
X40796Y15007D01*
X40798Y15005D01*
X40802Y15001D01*
X40809Y14996D01*
X40818Y14987D01*
X40829Y14977D01*
X40843Y14967D01*
X40861Y14956D01*
X40880Y14943D01*
X40903Y14930D01*
X40929Y14917D01*
X40956Y14903D01*
X40987Y14892D01*
X41020Y14879D01*
X41054Y14870D01*
X41093Y14861D01*
X41135Y14854D01*
X41080Y14544D01*
X41078D01*
X41076D01*
X41065Y14548D01*
X41051Y14552D01*
X41029Y14557D01*
X41002Y14564D01*
X40973Y14573D01*
X40940Y14584D01*
X40903Y14597D01*
X40865Y14614D01*
X40825Y14632D01*
X40785Y14653D01*
X40745Y14677D01*
X40705Y14703D01*
X40667Y14732D01*
X40630Y14764D01*
X40598Y14801D01*
X40596Y14803D01*
X40590Y14810D01*
X40581Y14821D01*
X40570Y14837D01*
X40558Y14857D01*
X40543Y14881D01*
X40529Y14908D01*
X40512Y14939D01*
X40496Y14974D01*
X40481Y15012D01*
X40467Y15052D01*
X40454Y15096D01*
X40443Y15143D01*
X40434Y15194D01*
X40428Y15247D01*
X40426Y15301D01*
Y15321D01*
X40428Y15336D01*
Y15354D01*
X40432Y15376D01*
X40434Y15400D01*
X40437Y15425D01*
X40443Y15454D01*
X40448Y15483D01*
X40465Y15547D01*
X40474Y15582D01*
X40487Y15615D01*
X40499Y15647D01*
X40516Y15680D01*
X40518Y15682D01*
X40519Y15687D01*
X40525Y15696D01*
X40532Y15709D01*
X40541Y15724D01*
X40552Y15740D01*
X40565Y15758D01*
X40579Y15778D01*
X40614Y15822D01*
X40656Y15866D01*
X40703Y15908D01*
X40731Y15927D01*
X40758Y15946D01*
X40760Y15947D01*
X40765Y15949D01*
X40772Y15955D01*
X40785Y15960D01*
X40798Y15968D01*
X40816Y15975D01*
X40834Y15984D01*
X40856Y15993D01*
X40880Y16000D01*
X40903Y16009D01*
X40958Y16024D01*
X41018Y16035D01*
X41049Y16037D01*
X41082Y16038D01*
X41084D01*
X41089D01*
X41098D01*
X41109Y16037D01*
X41124D01*
X41140Y16033D01*
X41160Y16031D01*
X41180Y16028D01*
X41227Y16017D01*
X41276Y16000D01*
X41302Y15991D01*
X41329Y15979D01*
X41355Y15966D01*
X41380Y15949D01*
X41382Y15947D01*
X41386Y15946D01*
X41393Y15940D01*
X41402Y15933D01*
X41413Y15924D01*
X41426Y15913D01*
X41440Y15900D01*
X41457Y15884D01*
X41473Y15867D01*
X41489Y15847D01*
X41508Y15827D01*
X41526Y15804D01*
X41542Y15778D01*
X41560Y15751D01*
X41577Y15722D01*
X41591Y15691D01*
Y15693D01*
X41593Y15700D01*
X41597Y15713D01*
X41602Y15727D01*
X41608Y15747D01*
X41617Y15769D01*
X41626Y15793D01*
X41639Y15818D01*
X41651Y15846D01*
X41668Y15875D01*
X41684Y15904D01*
X41704Y15933D01*
X41726Y15960D01*
X41750Y15988D01*
X41777Y16015D01*
X41806Y16038D01*
X41808Y16040D01*
X41813Y16044D01*
X41822Y16049D01*
X41835Y16059D01*
X41852Y16068D01*
X41870Y16079D01*
X41892Y16090D01*
X41917Y16100D01*
X41946Y16111D01*
X41977Y16124D01*
X42010Y16133D01*
X42046Y16142D01*
X42085Y16151D01*
X42125Y16157D01*
X42167Y16161D01*
X42212Y16162D01*
X42216D01*
X42226D01*
X42245Y16161D01*
D02*
G37*
G36*
X42161Y14226D02*
X42167Y14224D01*
X42174Y14222D01*
X42183Y14220D01*
X42196Y14217D01*
X42223Y14208D01*
X42257Y14195D01*
X42296Y14180D01*
X42339Y14162D01*
X42387Y14140D01*
X42438Y14117D01*
X42489Y14089D01*
X42540Y14058D01*
X42592Y14024D01*
X42643Y13986D01*
X42693Y13944D01*
X42738Y13898D01*
X42782Y13849D01*
X42783Y13845D01*
X42791Y13836D01*
X42802Y13822D01*
X42814Y13800D01*
X42831Y13774D01*
X42849Y13742D01*
X42869Y13705D01*
X42889Y13663D01*
X42909Y13618D01*
X42929Y13567D01*
X42947Y13512D01*
X42964Y13454D01*
X42976Y13390D01*
X42987Y13325D01*
X42995Y13256D01*
X42996Y13183D01*
Y13156D01*
X42995Y13143D01*
Y13116D01*
X42991Y13081D01*
X42987Y13041D01*
X42982Y12995D01*
X42976Y12948D01*
X42967Y12895D01*
X42956Y12843D01*
X42942Y12786D01*
X42927Y12732D01*
X42907Y12677D01*
X42885Y12622D01*
X42860Y12570D01*
X42831Y12520D01*
X42829Y12517D01*
X42823Y12510D01*
X42813Y12497D01*
X42800Y12479D01*
X42783Y12457D01*
X42762Y12433D01*
X42738Y12406D01*
X42709Y12377D01*
X42676Y12346D01*
X42641Y12315D01*
X42601Y12282D01*
X42560Y12249D01*
X42512Y12218D01*
X42463Y12187D01*
X42408Y12158D01*
X42352Y12133D01*
X42350D01*
X42349Y12131D01*
X42338Y12127D01*
X42321Y12120D01*
X42298Y12113D01*
X42268Y12102D01*
X42234Y12091D01*
X42194Y12078D01*
X42150Y12067D01*
X42101Y12055D01*
X42048Y12042D01*
X41994Y12031D01*
X41934Y12020D01*
X41873Y12013D01*
X41810Y12005D01*
X41744Y12002D01*
X41677Y12000D01*
X41675D01*
X41671D01*
X41666D01*
X41659D01*
X41650D01*
X41639Y12002D01*
X41611D01*
X41577Y12005D01*
X41537Y12007D01*
X41491Y12013D01*
X41442Y12018D01*
X41391Y12027D01*
X41337Y12036D01*
X41278Y12049D01*
X41220Y12064D01*
X41162Y12080D01*
X41104Y12100D01*
X41047Y12124D01*
X40991Y12149D01*
X40987Y12151D01*
X40978Y12156D01*
X40964Y12166D01*
X40942Y12177D01*
X40918Y12193D01*
X40891Y12211D01*
X40858Y12235D01*
X40825Y12260D01*
X40791Y12287D01*
X40752Y12320D01*
X40716Y12355D01*
X40679Y12393D01*
X40643Y12435D01*
X40609Y12479D01*
X40576Y12526D01*
X40545Y12577D01*
X40543Y12581D01*
X40538Y12590D01*
X40530Y12604D01*
X40521Y12626D01*
X40508Y12652D01*
X40496Y12683D01*
X40483Y12719D01*
X40468Y12757D01*
X40454Y12801D01*
X40441Y12848D01*
X40426Y12899D01*
X40416Y12952D01*
X40407Y13008D01*
X40399Y13067D01*
X40394Y13126D01*
X40392Y13188D01*
Y13214D01*
X40394Y13225D01*
X40396Y13252D01*
X40397Y13285D01*
X40403Y13321D01*
X40408Y13363D01*
X40416Y13410D01*
X40426Y13460D01*
X40439Y13511D01*
X40454Y13563D01*
X40474Y13616D01*
X40496Y13669D01*
X40521Y13724D01*
X40550Y13774D01*
X40585Y13824D01*
X40587Y13827D01*
X40594Y13835D01*
X40605Y13849D01*
X40621Y13866D01*
X40639Y13887D01*
X40665Y13911D01*
X40692Y13936D01*
X40725Y13965D01*
X40761Y13995D01*
X40802Y14026D01*
X40847Y14055D01*
X40894Y14084D01*
X40947Y14113D01*
X41004Y14139D01*
X41063Y14164D01*
X41127Y14184D01*
X41204Y13856D01*
X41200Y13855D01*
X41191Y13853D01*
X41178Y13847D01*
X41158Y13840D01*
X41136Y13831D01*
X41111Y13820D01*
X41082Y13805D01*
X41051Y13791D01*
X41018Y13774D01*
X40985Y13754D01*
X40953Y13734D01*
X40918Y13711D01*
X40887Y13685D01*
X40856Y13660D01*
X40829Y13631D01*
X40803Y13600D01*
X40802Y13598D01*
X40798Y13592D01*
X40792Y13583D01*
X40783Y13571D01*
X40774Y13554D01*
X40763Y13534D01*
X40752Y13511D01*
X40740Y13485D01*
X40729Y13456D01*
X40718Y13425D01*
X40707Y13390D01*
X40698Y13354D01*
X40689Y13314D01*
X40683Y13272D01*
X40679Y13228D01*
X40678Y13181D01*
Y13154D01*
X40679Y13134D01*
X40681Y13108D01*
X40685Y13079D01*
X40689Y13046D01*
X40696Y13012D01*
X40703Y12974D01*
X40712Y12935D01*
X40723Y12895D01*
X40736Y12854D01*
X40752Y12813D01*
X40772Y12773D01*
X40792Y12733D01*
X40818Y12695D01*
X40820Y12693D01*
X40823Y12686D01*
X40832Y12677D01*
X40843Y12664D01*
X40858Y12648D01*
X40874Y12630D01*
X40894Y12610D01*
X40916Y12588D01*
X40942Y12566D01*
X40969Y12542D01*
X41000Y12520D01*
X41034Y12499D01*
X41069Y12477D01*
X41107Y12457D01*
X41147Y12439D01*
X41191Y12422D01*
X41193D01*
X41202Y12419D01*
X41215Y12415D01*
X41231Y12409D01*
X41253Y12404D01*
X41278Y12397D01*
X41307Y12391D01*
X41340Y12384D01*
X41375Y12377D01*
X41413Y12369D01*
X41453Y12362D01*
X41495Y12357D01*
X41582Y12348D01*
X41628Y12346D01*
X41675Y12344D01*
X41679D01*
X41690D01*
X41706D01*
X41730Y12346D01*
X41757Y12348D01*
X41790Y12349D01*
X41826Y12351D01*
X41864Y12355D01*
X41908Y12360D01*
X41954Y12366D01*
X42046Y12384D01*
X42096Y12393D01*
X42143Y12406D01*
X42190Y12420D01*
X42236Y12437D01*
X42237Y12439D01*
X42247Y12440D01*
X42257Y12446D01*
X42274Y12455D01*
X42294Y12464D01*
X42318Y12477D01*
X42343Y12491D01*
X42370Y12508D01*
X42398Y12528D01*
X42427Y12550D01*
X42458Y12573D01*
X42487Y12599D01*
X42516Y12628D01*
X42543Y12659D01*
X42569Y12691D01*
X42592Y12728D01*
X42594Y12730D01*
X42598Y12737D01*
X42603Y12748D01*
X42611Y12763D01*
X42620Y12781D01*
X42631Y12803D01*
X42640Y12828D01*
X42651Y12855D01*
X42663Y12886D01*
X42672Y12919D01*
X42683Y12955D01*
X42693Y12992D01*
X42700Y13032D01*
X42705Y13072D01*
X42709Y13114D01*
X42711Y13156D01*
Y13168D01*
X42709Y13183D01*
Y13203D01*
X42705Y13227D01*
X42702Y13254D01*
X42698Y13287D01*
X42691Y13319D01*
X42682Y13356D01*
X42671Y13394D01*
X42658Y13434D01*
X42643Y13474D01*
X42625Y13514D01*
X42603Y13554D01*
X42578Y13592D01*
X42551Y13631D01*
X42549Y13633D01*
X42543Y13640D01*
X42534Y13649D01*
X42520Y13662D01*
X42503Y13678D01*
X42483Y13696D01*
X42458Y13716D01*
X42430Y13736D01*
X42398Y13758D01*
X42363Y13780D01*
X42323Y13804D01*
X42279Y13824D01*
X42234Y13845D01*
X42183Y13864D01*
X42130Y13880D01*
X42072Y13895D01*
X42156Y14228D01*
X42157D01*
X42161Y14226D01*
D02*
G37*
%LPC*%
G36*
X50072Y15504D02*
X48936D01*
X50072Y14714D01*
Y15504D01*
D02*
G37*
%LPD*%
D11*
X49638Y38224D02*
X54362D01*
X49638Y28776D02*
Y38224D01*
Y28776D02*
X54362D01*
Y38224D01*
X40638D02*
X45362D01*
X40638Y28776D02*
Y38224D01*
Y28776D02*
X45362D01*
Y38224D01*
X48638Y7276D02*
X53362D01*
Y16724D01*
X48638D02*
X53362D01*
X48638Y7276D02*
Y16724D01*
X40638Y7276D02*
X45362D01*
Y16724D01*
X40638D02*
X45362D01*
X40638Y7276D02*
Y16724D01*
M02*
