G04*
G04 #@! TF.GenerationSoftware,Altium Limited,Altium Designer,22.2.1 (43)*
G04*
G04 Layer_Color=16711935*
%FSLAX25Y25*%
%MOIN*%
G70*
G04*
G04 #@! TF.SameCoordinates,84257AD4-3E44-4DFC-A38E-5C661E0BE4F9*
G04*
G04*
G04 #@! TF.FilePolarity,Positive*
G04*
G01*
G75*
%ADD21C,0.04724*%
D21*
X94335Y45000D02*
X94155Y45904D01*
X93643Y46670D01*
X92876Y47183D01*
X91972Y47362D01*
X94335Y45000D02*
X94155Y45904D01*
X93643Y46670D01*
X92876Y47183D01*
X91972Y47362D01*
Y8425D02*
X92876Y8605D01*
X93643Y9117D01*
X94155Y9883D01*
X94335Y10787D01*
X91972Y8425D02*
X92876Y8605D01*
X93643Y9117D01*
X94155Y9883D01*
X94335Y10787D01*
Y5394D02*
X94155Y6298D01*
X93643Y7064D01*
X92876Y7576D01*
X91972Y7756D01*
X94335Y5394D02*
X94155Y6298D01*
X93643Y7064D01*
X92876Y7576D01*
X91972Y7756D01*
Y-2362D02*
X92876Y-2183D01*
X93643Y-1670D01*
X94155Y-904D01*
X94335Y0D01*
X91972Y-2362D02*
X92876Y-2183D01*
X93643Y-1670D01*
X94155Y-904D01*
X94335Y0D01*
X1028Y47362D02*
X124Y47183D01*
X-643Y46670D01*
X-1155Y45904D01*
X-1335Y45000D01*
X1028Y47362D02*
X124Y47183D01*
X-643Y46670D01*
X-1155Y45904D01*
X-1335Y45000D01*
Y10787D02*
X-1155Y9883D01*
X-643Y9117D01*
X124Y8605D01*
X1028Y8425D01*
X-1335Y10787D02*
X-1155Y9883D01*
X-643Y9117D01*
X124Y8605D01*
X1028Y8425D01*
Y7756D02*
X124Y7576D01*
X-643Y7064D01*
X-1155Y6298D01*
X-1335Y5394D01*
X1028Y7756D02*
X124Y7576D01*
X-643Y7064D01*
X-1155Y6298D01*
X-1335Y5394D01*
Y0D02*
X-1155Y-904D01*
X-643Y-1670D01*
X124Y-2183D01*
X1028Y-2362D01*
X-1335Y0D02*
X-1155Y-904D01*
X-643Y-1670D01*
X124Y-2183D01*
X1028Y-2362D01*
X94335Y10787D02*
Y45000D01*
X84886Y8425D02*
X91972D01*
X84886Y7756D02*
X91972D01*
X94335Y0D02*
Y5394D01*
X84886Y7756D02*
Y8425D01*
X1028Y47362D02*
X91972D01*
X1028Y7756D02*
X8114D01*
X-1335Y10787D02*
Y45000D01*
X1028Y8425D02*
X8114D01*
Y7756D02*
Y8425D01*
X1028Y-2362D02*
X91972D01*
X-1335Y0D02*
Y5394D01*
M02*
